<?xml version="1.0"?>
<svg width="918" height="900" xmlns="http://www.w3.org/2000/svg" xmlns:svg="http://www.w3.org/2000/svg">
 <g class="layer">
  <title>Layer 1</title>
  <path d="m746.086,-237.052c-34.525,-99.492 250.49,1185.982 -330.025,108.645c307.46,643.224 391.333,868.697 347.835,1285.687c-23.397,224.29 93.89,-679.103 107.611,-858.176c13.72,-179.074 -88.143,-428.729 -125.421,-536.156z" fill="#00B0B8" fill-opacity="0.1" id="svg_1" stroke="white" stroke-opacity="0.85" stroke-width="6"/>
  <path d="m267.897,1353.87c-52.054,210.49 893.823,-1460.576 808.253,647.75c60.47,-1489.949 270.74,-1977.0737 873.64,-2567.737c324.29,-317.704 -1077.204,890.817 -1325.98,1152.156c-248.775,261.339 -299.706,540.551 -355.913,767.831z" fill="#01B0B9" fill-opacity="0.1" id="svg_2"/>
  <path d="m710.073,-246.12c-30.156,-65.432 -61.705,-144.356 -94.652,-238.836c34.146,88.258 65.895,167.183 94.652,238.836c317.217,688.295 480.157,-116.413 492.367,-12.066c14.43,123.38 -19,239.4302 -52.37,423.615c-57.2,315.763 -629.296,975.561 -506.133,774.322c325.079,-531.148 273.111,-670.161 66.136,-1185.871z" fill="#05AFB8" fill-opacity="0.17" id="svg_3"/>
  <path d="m429.114,-392.603c-90.323,-56.946 543.624,644.26 -429.114,277.708c687.432,259.042 882.449,432.83 1064.61,806.298c97.98,200.88 -248.519,-641.7911 -331.922,-798.622c-83.403,-156.831 -206.047,-223.896 -303.574,-285.384z" fill="#A9CED0" fill-opacity="0.17" id="svg_4"/>
 </g>
</svg>