<svg width="984" height="900" viewBox="0 0 984 900" fill="none" xmlns="http://www.w3.org/2000/svg">
<path d="M746.086 -256.052C711.561 -355.544 996.576 929.93 416.061 -147.407C723.521 495.817 807.394 721.29 763.896 1138.28C740.499 1362.57 857.786 459.177 871.507 280.104C885.227 101.03 783.364 -148.625 746.086 -256.052Z" fill="#00B0B8" fill-opacity="0.1" stroke="white" stroke-opacity="0.85" stroke-width="6"/>
<path d="M267.897 1334.87C215.843 1545.36 1161.72 -125.706 1076.15 1982.62C1136.62 492.671 1346.89 5.54603 1949.79 -585.117C2274.08 -902.821 872.586 305.7 623.81 567.039C375.035 828.377 324.104 1107.59 267.897 1334.87Z" fill="#01B0B9" fill-opacity="0.1"/>
<path d="M710.073 -265.121C679.918 -330.552 648.368 -409.476 615.421 -503.956C649.567 -415.698 681.316 -336.773 710.073 -265.121C1027.29 423.175 1190.23 -381.533 1202.44 -277.186C1216.87 -153.806 1183.44 -37.7559 1150.07 146.429C1092.87 462.191 520.774 1121.99 643.937 920.75C969.017 389.603 917.048 250.59 710.073 -265.121Z" fill="#05AFB8" fill-opacity="0.17"/>
<path d="M429.114 -411.603C338.791 -468.549 972.738 232.657 0 -133.895C687.432 125.147 882.449 298.935 1064.61 672.403C1162.59 873.283 816.091 30.6118 732.688 -126.219C649.285 -283.05 526.641 -350.115 429.114 -411.603Z" fill="#A9CED0" fill-opacity="0.17"/>
<path d="M515.743 -34.8779C523.089 42.6355 737.348 -357.466 1033.96 595.097C811.973 -61.587 709.102 -218.299 1066.48 -254.035" stroke="white" stroke-width="2"/>
<path d="M477.444 1289.14C449.604 1509.68 1263.63 -234.128 1470.02 1980.64C1324.17 415.471 1488.58 -93.7254 2075.33 -706.543C2390.94 -1036.16 1003.44 215.462 763.851 486.841C524.26 758.22 507.505 1051.01 477.444 1289.14Z" stroke="white"/>
<path d="M1017.73 -326.956C1037.51 407.396 950.255 653.607 673.249 963.33" stroke="#078289" stroke-opacity="0.22"/>
</svg>
